<?xml version="1.0" encoding="UTF-8" standalone="no"?>
<!DOCTYPE svg PUBLIC "-//W3C//DTD SVG 20010904//EN"
              "http://www.w3.org/TR/2001/REC-SVG-20010904/DTD/svg10.dtd">

<svg xmlns="http://www.w3.org/2000/svg"
     width="2.77778in" height="2.77778in"
     viewBox="0 0 200 200">
  <path id="Selection"
        fill="none" stroke="black" stroke-width="1"
        d="M 86.00,103.00
           C 86.00,103.00 86.00,22.00 86.00,22.00
             86.11,13.35 90.46,6.18 100.00,6.18
             109.54,6.18 113.89,13.35 114.00,22.00
             114.00,22.00 114.00,103.00 114.00,103.00
             114.00,103.00 129.00,88.00 129.00,88.00
             133.12,83.88 137.05,79.00 143.00,77.70
             153.59,75.39 161.97,84.64 159.47,95.00
             157.96,101.24 151.45,106.55 147.00,111.00
             147.00,111.00 118.00,140.00 118.00,140.00
             112.87,145.13 108.75,150.61 101.00,150.95
             92.21,151.34 88.79,146.79 83.00,141.00
             83.00,141.00 65.00,123.00 65.00,123.00
             60.11,118.11 43.94,102.98 41.57,98.00
             40.19,95.11 39.69,91.13 40.39,88.00
             42.36,79.23 52.02,75.07 60.00,78.65
             65.06,80.92 81.03,98.03 86.00,103.00 Z
           M 38.00,166.53
           C 38.00,166.53 78.00,166.00 78.00,166.00
             78.00,166.00 155.00,166.00 155.00,166.00
             163.29,166.01 171.39,168.09 171.96,178.00
             172.70,191.08 164.14,193.98 153.00,194.00
             153.00,194.00 46.00,194.00 46.00,194.00
             40.87,193.99 36.43,194.14 32.33,190.44
             25.42,184.23 25.83,170.44 38.00,166.53 Z" />
</svg>
