<?xml version="1.0" encoding="UTF-8" standalone="no"?>
<!DOCTYPE svg PUBLIC "-//W3C//DTD SVG 20010904//EN"
              "http://www.w3.org/TR/2001/REC-SVG-20010904/DTD/svg10.dtd">

<svg xmlns="http://www.w3.org/2000/svg"
     width="2.66667in" height="2.66667in"
     viewBox="0 0 800 800">
  <path id="Selection"
        fill="none" stroke="black" stroke-width="1"
        d="M 0.00,0.00
           C 0.00,0.00 80.00,0.00 80.00,0.00
             80.00,0.00 103.00,0.00 103.00,0.00
             103.00,0.00 116.00,1.00 116.00,1.00
             96.42,5.60 89.09,24.75 89.00,43.00
             89.00,43.00 89.00,129.00 89.00,129.00
             89.00,129.00 89.00,538.00 89.00,538.00
             89.00,538.00 711.00,538.00 711.00,538.00
             711.00,538.00 711.00,195.00 711.00,195.00
             710.99,188.96 710.22,180.46 707.60,175.00
             704.74,169.05 698.66,163.66 694.00,159.00
             694.00,159.00 669.00,134.00 669.00,134.00
             669.00,134.00 585.00,50.00 585.00,50.00
             585.00,50.00 540.00,5.53 540.00,5.53
             540.00,5.53 531.00,0.00 531.00,0.00
             531.00,0.00 800.00,0.00 800.00,0.00
             800.00,0.00 800.00,800.00 800.00,800.00
             800.00,800.00 720.00,800.00 720.00,800.00
             720.00,800.00 697.00,800.00 697.00,800.00
             697.00,800.00 684.00,799.00 684.00,799.00
             687.78,798.32 690.63,797.39 694.00,795.48
             709.88,786.48 711.00,776.31 711.00,760.00
             711.00,760.00 711.00,741.00 711.00,741.00
             711.00,741.00 711.00,565.00 711.00,565.00
             711.00,565.00 89.00,565.00 89.00,565.00
             89.00,565.00 89.00,725.00 89.00,725.00
             89.00,725.00 89.00,759.00 89.00,759.00
             89.00,770.13 87.98,777.62 95.68,786.91
             102.47,795.11 107.88,795.60 116.00,800.00
             116.00,800.00 0.00,800.00 0.00,800.00
             0.00,800.00 0.00,0.00 0.00,0.00 Z
           M 518.00,192.86
           C 518.00,192.86 518.00,52.00 518.00,52.00
             518.01,46.16 519.38,36.27 528.00,41.60
             528.00,41.60 551.00,64.00 551.00,64.00
             551.00,64.00 641.00,154.00 641.00,154.00
             641.00,154.00 668.40,182.00 668.40,182.00
             671.29,186.62 669.09,191.15 664.00,192.86
             662.17,193.08 658.96,193.00 657.00,192.86
             657.00,192.86 518.00,192.86 518.00,192.86 Z
           M 393.00,110.58
           C 396.51,109.98 401.62,109.55 405.00,110.58
             412.28,113.17 420.97,125.67 422.76,133.00
             426.66,148.98 421.42,178.55 418.20,195.00
             417.29,199.63 413.61,213.35 414.07,217.00
             414.47,220.11 417.73,225.99 419.25,229.00
             419.25,229.00 434.60,256.00 434.60,256.00
             444.71,272.76 456.57,289.96 469.08,305.00
             471.96,308.46 480.46,319.36 484.00,320.81
             486.66,321.89 493.86,320.31 497.00,319.87
             497.00,319.87 525.00,317.00 525.00,317.00
             538.87,316.84 559.57,317.47 568.23,330.00
             573.75,337.71 572.35,348.13 568.23,356.00
             560.62,369.85 548.01,378.59 532.00,377.96
             517.84,377.41 502.97,368.72 492.00,360.35
             488.19,357.43 478.66,348.43 475.00,347.60
             472.39,347.01 467.73,348.41 465.00,349.00
             465.00,349.00 443.00,354.58 443.00,354.58
             443.00,354.58 392.00,370.66 392.00,370.66
             392.00,370.66 357.04,384.53 357.04,384.53
             355.15,385.59 354.24,386.33 352.97,388.11
             352.97,388.11 342.78,408.00 342.78,408.00
             333.20,426.16 322.68,445.43 308.00,460.00
             300.97,466.97 292.48,473.55 282.00,472.91
             266.09,471.93 254.02,455.25 254.75,440.00
             256.01,413.78 289.92,392.31 311.00,381.25
             311.00,381.25 326.00,373.31 326.00,373.31
             331.09,370.97 335.40,370.20 338.32,364.96
             338.32,364.96 351.60,334.00 351.60,334.00
             351.60,334.00 376.33,265.00 376.33,265.00
             376.33,265.00 385.00,236.00 385.00,236.00
             385.99,232.54 388.72,223.18 388.50,220.00
             388.50,220.00 378.69,194.00 378.69,194.00
             372.31,176.08 368.78,162.12 369.00,143.00
             369.19,126.98 376.77,114.08 393.00,110.58 Z
           M 398.00,134.00
           C 392.87,135.69 391.35,140.12 389.75,145.00
             385.36,158.39 388.57,166.84 396.00,178.00
             396.00,178.00 398.00,178.00 398.00,178.00
             405.68,163.00 405.63,148.89 398.00,134.00 Z
           M 406.00,251.00
           C 406.00,251.00 404.00,251.00 404.00,251.00
             404.00,251.00 382.58,316.00 382.58,316.00
             382.58,316.00 368.00,355.00 368.00,355.00
             368.00,355.00 395.00,345.69 395.00,345.69
             407.70,341.17 445.63,329.74 458.00,328.00
             458.00,328.00 440.73,305.00 440.73,305.00
             430.62,291.27 413.19,265.94 406.00,251.00 Z
           M 508.00,341.00
           C 512.05,348.16 523.44,355.43 532.00,354.91
             537.11,354.59 549.75,349.95 548.18,343.28
             547.30,339.55 539.89,340.00 537.00,340.00
             537.00,340.00 508.00,341.00 508.00,341.00 Z
           M 320.00,403.00
           C 309.19,406.09 289.48,421.33 282.33,430.00
             278.21,434.99 273.85,443.69 281.11,448.36
             286.22,451.65 292.44,444.47 295.41,441.00
             303.16,431.92 315.18,413.82 320.00,403.00 Z
           M 231.00,606.00
           C 231.00,606.00 256.00,606.00 256.00,606.00
             273.71,606.00 289.30,605.49 304.00,617.47
             325.49,634.99 323.67,671.85 300.00,686.53
             284.98,695.85 269.79,694.00 253.00,694.00
             253.00,694.00 253.00,744.00 253.00,744.00
             253.00,744.00 231.00,744.00 231.00,744.00
             231.00,744.00 231.00,606.00 231.00,606.00 Z
           M 346.00,606.00
           C 381.31,606.00 422.31,600.43 446.07,633.00
             456.56,647.37 459.00,665.81 457.16,683.00
             454.43,708.52 445.21,731.50 419.00,740.66
             413.05,742.73 408.34,743.92 402.00,744.00
             402.00,744.00 346.00,744.00 346.00,744.00
             346.00,744.00 346.00,606.00 346.00,606.00 Z
           M 491.00,606.00
           C 491.00,606.00 578.00,606.00 578.00,606.00
             578.00,606.00 578.00,623.00 578.00,623.00
             578.00,623.00 514.00,623.00 514.00,623.00
             514.00,623.00 514.00,667.00 514.00,667.00
             514.00,667.00 572.00,667.00 572.00,667.00
             572.00,667.00 572.00,682.00 572.00,682.00
             572.00,682.00 514.00,682.00 514.00,682.00
             514.00,682.00 514.00,744.00 514.00,744.00
             514.00,744.00 491.00,744.00 491.00,744.00
             491.00,744.00 491.00,606.00 491.00,606.00 Z
           M 253.00,678.00
           C 253.00,678.00 275.00,678.00 275.00,678.00
             300.96,677.68 302.33,643.71 292.24,631.09
             283.53,620.22 265.60,623.00 253.00,623.00
             253.00,623.00 253.00,678.00 253.00,678.00 Z
           M 368.00,729.00
           C 383.36,729.00 405.29,730.75 417.96,721.07
             425.05,715.66 428.95,707.35 431.41,699.00
             433.19,692.97 433.51,689.11 434.16,683.00
             436.13,664.61 434.90,644.79 419.00,632.53
             404.02,620.97 385.66,623.00 368.00,623.00
             368.00,623.00 368.00,729.00 368.00,729.00 Z" />
</svg>
