<?xml version="1.0" encoding="UTF-8" standalone="no"?>
<!DOCTYPE svg PUBLIC "-//W3C//DTD SVG 20010904//EN"
              "http://www.w3.org/TR/2001/REC-SVG-20010904/DTD/svg10.dtd">

<svg xmlns="http://www.w3.org/2000/svg"
     width="0.266667in" height="0.266667in"
     viewBox="0 0 80 80">
  <path id="Selection #4"
        fill="none" stroke="black" stroke-width="1"
        d="M 8.00,54.00
           C 8.00,54.00 8.00,17.00 8.00,17.00
             8.00,13.64 7.47,4.87 9.17,2.31
             11.03,-0.47 15.06,0.01 18.00,0.00
             18.00,0.00 47.00,0.00 47.00,0.00
             55.59,0.02 55.81,0.85 62.00,7.00
             64.83,9.81 69.88,14.37 71.26,18.00
             72.29,20.70 72.00,26.89 72.00,30.00
             72.00,30.00 72.00,54.00 72.00,54.00
             72.00,54.00 8.00,54.00 8.00,54.00 Z
           M 53.00,5.00
           C 53.00,5.00 52.00,19.00 52.00,19.00
             52.00,19.00 66.00,19.00 66.00,19.00
             66.00,19.00 53.00,5.00 53.00,5.00 Z
           M 42.00,18.00
           C 41.80,15.54 41.28,10.66 38.00,14.00
             38.00,14.00 42.00,18.00 42.00,18.00 Z
           M 39.00,17.00
           C 39.00,17.00 39.00,26.00 39.00,26.00
             39.00,26.00 43.00,27.00 43.00,27.00
             43.00,27.00 39.00,17.00 39.00,17.00 Z
           M 46.00,30.00
           C 46.00,30.00 45.00,30.00 45.00,30.00
             45.00,30.00 46.00,31.00 46.00,31.00
             46.00,31.00 46.00,30.00 46.00,30.00 Z
           M 47.00,31.00
           C 47.00,31.00 36.00,36.00 36.00,36.00
             36.00,36.00 36.00,32.00 36.00,32.00
             34.10,36.05 33.88,36.67 30.00,39.00
             30.00,39.00 32.00,44.00 32.00,44.00
             33.24,42.04 34.39,40.02 36.21,38.51
             40.79,34.70 50.75,33.22 56.00,36.00
             54.89,31.08 51.49,32.58 47.00,31.00 Z
           M 51.00,35.00
           C 51.00,35.00 50.00,35.00 50.00,35.00
             50.00,35.00 51.00,36.00 51.00,36.00
             51.00,36.00 51.00,35.00 51.00,35.00 Z
           M 30.00,40.00
           C 30.00,40.00 29.00,40.00 29.00,40.00
             29.00,40.00 30.00,41.00 30.00,41.00
             30.00,41.00 30.00,40.00 30.00,40.00 Z
           M 27.00,43.00
           C 26.35,45.90 27.40,45.86 30.00,46.00
             30.00,46.00 27.00,43.00 27.00,43.00 Z
           M 31.00,44.00
           C 31.00,44.00 30.00,44.00 30.00,44.00
             30.00,44.00 31.00,45.00 31.00,45.00
             31.00,45.00 31.00,44.00 31.00,44.00 Z
           M 8.00,56.00
           C 8.00,56.00 72.00,56.00 72.00,56.00
             72.00,56.00 72.00,72.00 72.00,72.00
             72.00,72.00 70.26,79.01 70.26,79.01
             70.26,79.01 63.00,80.00 63.00,80.00
             63.00,80.00 15.00,80.00 15.00,80.00
             15.00,80.00 9.74,79.01 9.74,79.01
             9.74,79.01 8.00,71.00 8.00,71.00
             8.00,71.00 8.00,56.00 8.00,56.00 Z
           M 29.00,61.00
           C 29.00,61.00 24.00,61.00 24.00,61.00
             24.00,61.00 25.00,74.00 25.00,74.00
             25.00,74.00 25.00,69.00 25.00,69.00
             25.00,69.00 29.00,68.00 29.00,68.00
             29.00,68.00 25.00,68.00 25.00,68.00
             25.00,68.00 25.00,62.00 25.00,62.00
             25.00,62.00 29.00,61.00 29.00,61.00 Z
           M 41.00,61.00
           C 41.00,61.00 35.00,61.00 35.00,61.00
             35.00,61.00 35.00,74.00 35.00,74.00
             35.00,74.00 42.00,73.00 42.00,73.00
             42.00,73.00 36.00,73.00 36.00,73.00
             36.00,73.00 36.00,62.00 36.00,62.00
             36.00,62.00 41.00,61.00 41.00,61.00 Z
           M 57.00,61.00
           C 57.00,61.00 50.00,61.00 50.00,61.00
             50.00,61.00 51.00,74.00 51.00,74.00
             51.00,74.00 51.00,68.00 51.00,68.00
             51.00,68.00 57.00,67.00 57.00,67.00
             57.00,67.00 51.00,67.00 51.00,67.00
             51.00,67.00 51.00,62.00 51.00,62.00
             51.00,62.00 57.00,61.00 57.00,61.00 Z
           M 30.00,62.00
           C 30.00,62.00 29.00,62.00 29.00,62.00
             29.00,62.00 30.00,63.00 30.00,63.00
             30.00,63.00 30.00,62.00 30.00,62.00 Z
           M 43.00,62.00
           C 43.00,62.00 42.00,62.00 42.00,62.00
             42.00,62.00 43.00,63.00 43.00,63.00
             43.00,63.00 43.00,62.00 43.00,62.00 Z
           M 44.00,63.00
           C 44.00,63.00 43.00,63.00 43.00,63.00
             43.00,63.00 44.00,64.00 44.00,64.00
             44.00,64.00 44.00,63.00 44.00,63.00 Z
           M 45.00,64.00
           C 45.00,64.00 45.00,71.00 45.00,71.00
             45.00,71.00 45.00,64.00 45.00,64.00 Z
           M 44.00,71.00
           C 44.00,71.00 43.00,71.00 43.00,71.00
             43.00,71.00 44.00,72.00 44.00,72.00
             44.00,72.00 44.00,71.00 44.00,71.00 Z
           M 43.00,72.00
           C 43.00,72.00 42.00,72.00 42.00,72.00
             42.00,72.00 43.00,73.00 43.00,73.00
             43.00,73.00 43.00,72.00 43.00,72.00 Z" />
</svg>
